<?xml version="1.0" encoding="UTF-8" standalone="no"?>
<!-- Created with Inkscape (http://www.inkscape.org/) -->

<svg
   viewBox="0 0 941.32318 265.90985"
   version="1.1"
   id="svg5"
   inkscape:version="1.1.1 (3bf5ae0d25, 2021-09-20)"
   sodipodi:docname="shamtool.svg"
   xmlns:inkscape="http://www.inkscape.org/namespaces/inkscape"
   xmlns:sodipodi="http://sodipodi.sourceforge.net/DTD/sodipodi-0.dtd"
   xmlns="http://www.w3.org/2000/svg"
   xmlns:svg="http://www.w3.org/2000/svg">
  <sodipodi:namedview
     id="namedview7"
     pagecolor="#ffffff"
     bordercolor="#666666"
     borderopacity="1.0"
     inkscape:pageshadow="2"
     inkscape:pageopacity="0.0"
     inkscape:pagecheckerboard="0"
     inkscape:document-units="px"
     showgrid="false"
     inkscape:zoom="0.93470678"
     inkscape:cx="540.81131"
     inkscape:cy="144.43032"
     inkscape:window-width="1482"
     inkscape:window-height="1020"
     inkscape:window-x="2422"
     inkscape:window-y="38"
     inkscape:window-maximized="0"
     inkscape:current-layer="layer1"
     fit-margin-top="0"
     fit-margin-left="0"
     fit-margin-right="0"
     fit-margin-bottom="0" />
  <defs
     id="defs2">
    <rect
       x="416.07565"
       y="717.16315"
       width="102.88416"
       height="72.624115"
       id="rect4457" />
    <rect
       x="413.04965"
       y="724.72815"
       width="111.96217"
       height="113.47518"
       id="rect3463" />
    <g
       id="shape0"
       transform="translate(8.2,16.35)">
      <path
         d="m -6.65,4.95 q 1.4,0.1 2.5,0.6 Q -5.4,4.7 -6.9,4.4 L -7.8,1.25 q -0.6,-2.45 0.2,-2.8 l 1.65,1.25 -0.55,-0.95 1.25,-0.1 1.25,1.1 1.1,1.05 Q -2.8,2.25 -2.15,3.7 -2.4,2.65 -2.3,1.45 0.25,2.8 1.2,5.8 2.15,8.8 0.1,11.9 L 0.05,11.65 v -0.1 -0.3 Q -0.25,10.1 -1.85,9.4 L -3.35,8.55 Q -5.65,6.75 -6.65,5.1 L -6.7,5 -6.65,4.95 m 0.85,-4.3 q 1.5,1.2 2.2,2.3 l 0.2,0.45 1.15,1.65 q -0.9,-1.1 -2,-1.4 1.1,0.3 2,1.4 L -3.4,3.4 -3.6,2.95 q -0.7,-1.1 -2.2,-2.3 m 5.35,8.3 Q -0.6,8.15 -1.35,6.6 -1.75,5.4 -1.65,4.3 l 0.1,-0.55 -0.1,0.55 q -0.1,1.1 0.3,2.3 0.75,1.55 0.9,2.35 l 0.5,2.3 -0.5,-2.3 Q -1.05,7.1 -3.6,6.55 l -0.55,-0.1 0.55,0.1 q 2.55,0.55 3.15,2.4 M -4,-0.25 -4.25,0.8 Q -4.2,1.8 -3.6,2.95 -4.2,1.8 -4.25,0.8 L -4,-0.25 m 1.75,5.3 0.9,1.55 -0.9,-1.55"
         fill="#77adaa"
         fill-rule="evenodd"
         stroke="none"
         id="path17581" />
      <path
         d="M -6.65,4.95 -6.7,5 V 4.95 h 0.05"
         fill="#cf6a27"
         fill-rule="evenodd"
         stroke="none"
         id="path17583" />
      <path
         d="m -4,-0.25 -1.25,-1.1 -1.25,0.1 0.55,0.95 -1.65,-1.25 q -0.8,0.35 -0.2,2.8 l 0.9,3.15 q 1.5,0.3 2.75,1.15 -1.1,-0.5 -2.5,-0.6 H -6.7 V 5 m 0.05,0.1 q 1,1.65 3.3,3.45 l 1.5,0.85 q 1.6,0.7 1.9,1.85 l -0.5,-2.3 Q -1.05,7.1 -3.6,6.55 l -0.55,-0.1 m 2.6,-2.7 -0.1,0.55 q -0.1,1.1 0.3,2.3 0.75,1.55 0.9,2.35 m -3.8,-5.3 q 1.1,0.3 2,1.4 L -3.4,3.4 -3.6,2.95 Q -4.3,1.85 -5.8,0.65 M -4,-0.25 -2.9,0.8 Q -2.8,2.25 -2.15,3.7 -2.4,2.65 -2.3,1.45 0.25,2.8 1.2,5.8 q 0.95,3 -1.1,6.1 v 0.95 M -3.6,2.95 Q -4.2,1.8 -4.25,0.8 L -4,-0.25 m 2.65,6.85 -0.9,-1.55 m 2.3,6.2 v 0.3 0.1 L 0.1,11.9"
         fill="none"
         stroke="#000000"
         stroke-linecap="round"
         stroke-linejoin="miter"
         stroke-miterlimit="5"
         stroke-opacity="0.298039"
         stroke-width="0.3"
         id="path17585" />
      <path
         d="m -3.6,-6.2 0.05,-0.05 q 1.95,1.4 3,3.2 -0.95,-2.3 -2.8,-4.2 l 1.7,-5.2 q 1.5,-4.05 2.9,-3.7 l 1.2,3.3 0.1,-1.85 q 1.25,0 1.85,1.05 0.8,2.55 1.2,5.15 -1.2,2.1 -1.65,4.75 0.55,-1.7 1.85,-3.3 2.3,4.25 0.8,9.3 Q 5.1,7.2 -0.65,9.7 l 0.2,-0.4 0.1,-0.2 0.2,-0.2 0.1,-0.1 L 4.5,3.15 2.55,4.45 Q 2.7,1.3 4.1,-2.5 L 4.7,-3.1 3.35,-2.65 Q 2.9,-5.65 3.75,-9.8 2.9,-8.3 2.6,-6.2 2.7,-8.3 1.7,-11.45 L 1.95,-5.25 1,-5.8 0.5,-6.3 q 1.3,2.9 1.3,6.2 -1.25,0.05 -2.5,-1.05 l -0.7,-0.6 Q 1.15,4.6 0.35,3.3 -3.4,1.25 -3.6,-6 v -0.2 m 8.1,-4.75 -0.75,1.15 0.75,-1.15"
         fill="#95d9d6"
         fill-rule="evenodd"
         stroke="none"
         id="path17587" />
      <path
         d="M 2.6,-6.2 Q 2.9,-8.3 3.75,-9.8 2.9,-5.65 3.35,-2.65 L 4.7,-3.1 4.1,-2.5 Q 2.9,-1 2.3,1 L 2.55,-2 2.5,-5.3 2.6,-6.2 2.5,-5.3 2.55,-2 2.3,1 Q 2.9,-1 4.1,-2.5 2.7,1.3 2.55,4.45 L 4.5,3.15 -0.05,8.8 -0.1,8.75 Q 0.65,6.8 -0.95,4.4 L -2.3,1.85 Q -3.85,-2.8 -3.6,-6 -3.4,1.25 0.35,3.3 1.15,4.6 -1.4,-1.75 l 0.7,0.6 q 1.25,1.1 2.5,1.05 0,-3.3 -1.3,-6.2 l 0.5,0.5 0.95,0.55 -0.25,-6.2 q 1,3.15 0.9,5.25 M 2.55,-2 Q 2.35,-4.35 1,-5.8 2.35,-4.35 2.55,-2 M 2.3,1 Q 1.9,3.85 1.35,5 2.25,1.9 -0.7,-1.15 2.25,1.9 1.35,5 1.9,3.85 2.3,1 M 1.35,5 -0.1,8.75 1.35,5"
         fill="#77adaa"
         fill-rule="evenodd"
         stroke="none"
         id="path17589" />
      <path
         d="M -0.15,8.9 -0.1,8.75 -0.05,8.8 -0.15,8.9"
         fill="#ab5520"
         fill-rule="evenodd"
         stroke="none"
         id="path17591" />
      <path
         d="m -3.6,-6.2 0.05,-0.05 q 1.95,1.4 3,3.2 -0.95,-2.3 -2.8,-4.2 l 1.7,-5.2 q 1.5,-4.05 2.9,-3.7 l 1.2,3.3 0.1,-1.85 q 1.25,0 1.85,1.05 0.8,2.55 1.2,5.15 -1.2,2.1 -1.65,4.75 0.55,-1.7 1.85,-3.3 2.3,4.25 0.8,9.3 Q 5.1,7.2 -0.65,9.7 l -0.8,1.25 M 3.75,-9.8 Q 2.9,-8.3 2.6,-6.2 L 2.5,-5.3 2.55,-2 2.3,1 Q 2.9,-1 4.1,-2.5 L 4.7,-3.1 M 3.75,-9.8 4.5,-10.95 M 2.6,-6.2 Q 2.7,-8.3 1.7,-11.45 M 1,-5.8 Q 2.35,-4.35 2.55,-2 M 1,-5.8 0.5,-6.3 m -1.2,5.15 Q 2.25,1.9 1.35,5 1.9,3.85 2.3,1 m -3,-2.15 -0.7,-0.6 M -3.6,-6 q -0.25,3.2 1.3,7.85 l 1.35,2.55 q 1.6,2.4 0.85,4.35 L 1.35,5 m -2,4.7 0.2,-0.4 0.1,-0.2 0.2,-0.2 0.05,-0.15"
         fill="none"
         stroke="#000000"
         stroke-linecap="round"
         stroke-linejoin="miter"
         stroke-miterlimit="5"
         stroke-opacity="0.298039"
         stroke-width="0.3"
         id="path17593" />
    </g>
  </defs>
  <g
     inkscape:label="Layer 1"
     inkscape:groupmode="layer"
     id="layer1"
     style="display:inline"
     transform="translate(-423.28018,-460.26718)">
    <text
       xml:space="preserve"
       style="font-style:normal;font-weight:normal;font-size:192px;line-height:1.25;font-family:sans-serif;fill:#000000;fill-opacity:1;stroke:none"
       x="419.10165"
       y="717.16315"
       id="text1067"><tspan
         sodipodi:role="line"
         id="tspan1065"
         x="419.10165"
         y="717.16315"
         style="font-style:normal;font-variant:normal;font-weight:normal;font-stretch:normal;font-size:192px;font-family:Soopafresh;-inkscape-font-specification:Soopafresh">Sham</tspan></text>
    <text
       xml:space="preserve"
       id="text3461"
       style="font-style:normal;font-weight:normal;font-size:40px;line-height:1.25;font-family:sans-serif;white-space:pre;shape-inside:url(#rect3463);fill:#000000;fill-opacity:1;stroke:none" />
    <text
       xml:space="preserve"
       id="text4455"
       style="font-style:normal;font-weight:normal;font-size:40px;line-height:1.25;font-family:sans-serif;white-space:pre;shape-inside:url(#rect4457);fill:#000000;fill-opacity:1;stroke:none" />
    <text
       xml:space="preserve"
       style="font-style:normal;font-weight:normal;font-size:192px;line-height:1.25;font-family:sans-serif;fill:#fade55;fill-opacity:1;stroke:none"
       x="419.10165"
       y="717.16315"
       id="text11857"><tspan
         sodipodi:role="line"
         id="tspan11855"
         x="419.10165"
         y="717.16315"
         style="font-style:normal;font-variant:normal;font-weight:normal;font-stretch:normal;font-size:192px;font-family:Soopafresh;-inkscape-font-specification:Soopafresh;fill:#fade55;fill-opacity:1">Sham</tspan></text>
    <text
       xml:space="preserve"
       style="font-style:normal;font-weight:normal;font-size:192px;line-height:1.25;font-family:sans-serif;fill:#c834ed;fill-opacity:1;stroke:none"
       x="959.86798"
       y="722.91302"
       id="text11857-3"><tspan
         sodipodi:role="line"
         id="tspan11855-8"
         x="959.86798"
         y="722.91302"
         style="font-style:normal;font-variant:normal;font-weight:normal;font-stretch:normal;font-size:192px;font-family:Soopafresh;-inkscape-font-specification:Soopafresh;fill:#c834ed;fill-opacity:1">Tool</tspan></text>
    <g
       id="use17577"
       transform="matrix(3.6503251,7.2518141,-7.2518141,3.6503251,683.17291,523.38948)">
      <path
         d="m -6.65,4.95 q 1.4,0.1 2.5,0.6 Q -5.4,4.7 -6.9,4.4 L -7.8,1.25 q -0.6,-2.45 0.2,-2.8 l 1.65,1.25 -0.55,-0.95 1.25,-0.1 1.25,1.1 1.1,1.05 Q -2.8,2.25 -2.15,3.7 -2.4,2.65 -2.3,1.45 0.25,2.8 1.2,5.8 2.15,8.8 0.1,11.9 L 0.05,11.65 v -0.1 -0.3 Q -0.25,10.1 -1.85,9.4 L -3.35,8.55 Q -5.65,6.75 -6.65,5.1 L -6.7,5 -6.65,4.95 m 0.85,-4.3 q 1.5,1.2 2.2,2.3 l 0.2,0.45 1.15,1.65 q -0.9,-1.1 -2,-1.4 1.1,0.3 2,1.4 L -3.4,3.4 -3.6,2.95 q -0.7,-1.1 -2.2,-2.3 m 5.35,8.3 Q -0.6,8.15 -1.35,6.6 -1.75,5.4 -1.65,4.3 l 0.1,-0.55 -0.1,0.55 q -0.1,1.1 0.3,2.3 0.75,1.55 0.9,2.35 l 0.5,2.3 -0.5,-2.3 Q -1.05,7.1 -3.6,6.55 l -0.55,-0.1 0.55,0.1 q 2.55,0.55 3.15,2.4 M -4,-0.25 -4.25,0.8 Q -4.2,1.8 -3.6,2.95 -4.2,1.8 -4.25,0.8 L -4,-0.25 m 1.75,5.3 0.9,1.55 -0.9,-1.55"
         fill="#77adaa"
         fill-rule="evenodd"
         stroke="none"
         id="path17637" />
      <path
         d="M -6.65,4.95 -6.7,5 V 4.95 h 0.05"
         fill="#cf6a27"
         fill-rule="evenodd"
         stroke="none"
         id="path17639" />
      <path
         d="m -4,-0.25 -1.25,-1.1 -1.25,0.1 0.55,0.95 -1.65,-1.25 q -0.8,0.35 -0.2,2.8 l 0.9,3.15 q 1.5,0.3 2.75,1.15 -1.1,-0.5 -2.5,-0.6 H -6.7 V 5 m 0.05,0.1 q 1,1.65 3.3,3.45 l 1.5,0.85 q 1.6,0.7 1.9,1.85 l -0.5,-2.3 Q -1.05,7.1 -3.6,6.55 l -0.55,-0.1 m 2.6,-2.7 -0.1,0.55 q -0.1,1.1 0.3,2.3 0.75,1.55 0.9,2.35 m -3.8,-5.3 q 1.1,0.3 2,1.4 L -3.4,3.4 -3.6,2.95 Q -4.3,1.85 -5.8,0.65 M -4,-0.25 -2.9,0.8 Q -2.8,2.25 -2.15,3.7 -2.4,2.65 -2.3,1.45 0.25,2.8 1.2,5.8 q 0.95,3 -1.1,6.1 v 0.95 M -3.6,2.95 Q -4.2,1.8 -4.25,0.8 L -4,-0.25 m 2.65,6.85 -0.9,-1.55 m 2.3,6.2 v 0.3 0.1 L 0.1,11.9"
         fill="none"
         stroke="#000000"
         stroke-linecap="round"
         stroke-linejoin="miter"
         stroke-miterlimit="5"
         stroke-opacity="0.298039"
         stroke-width="0.3"
         id="path17641" />
      <path
         d="m -3.6,-6.2 0.05,-0.05 q 1.95,1.4 3,3.2 -0.95,-2.3 -2.8,-4.2 l 1.7,-5.2 q 1.5,-4.05 2.9,-3.7 l 1.2,3.3 0.1,-1.85 q 1.25,0 1.85,1.05 0.8,2.55 1.2,5.15 -1.2,2.1 -1.65,4.75 0.55,-1.7 1.85,-3.3 2.3,4.25 0.8,9.3 Q 5.1,7.2 -0.65,9.7 l 0.2,-0.4 0.1,-0.2 0.2,-0.2 0.1,-0.1 L 4.5,3.15 2.55,4.45 Q 2.7,1.3 4.1,-2.5 L 4.7,-3.1 3.35,-2.65 Q 2.9,-5.65 3.75,-9.8 2.9,-8.3 2.6,-6.2 2.7,-8.3 1.7,-11.45 L 1.95,-5.25 1,-5.8 0.5,-6.3 q 1.3,2.9 1.3,6.2 -1.25,0.05 -2.5,-1.05 l -0.7,-0.6 Q 1.15,4.6 0.35,3.3 -3.4,1.25 -3.6,-6 v -0.2 m 8.1,-4.75 -0.75,1.15 0.75,-1.15"
         fill="#95d9d6"
         fill-rule="evenodd"
         stroke="none"
         id="path17643" />
      <path
         d="M 2.6,-6.2 Q 2.9,-8.3 3.75,-9.8 2.9,-5.65 3.35,-2.65 L 4.7,-3.1 4.1,-2.5 Q 2.9,-1 2.3,1 L 2.55,-2 2.5,-5.3 2.6,-6.2 2.5,-5.3 2.55,-2 2.3,1 Q 2.9,-1 4.1,-2.5 2.7,1.3 2.55,4.45 L 4.5,3.15 -0.05,8.8 -0.1,8.75 Q 0.65,6.8 -0.95,4.4 L -2.3,1.85 Q -3.85,-2.8 -3.6,-6 -3.4,1.25 0.35,3.3 1.15,4.6 -1.4,-1.75 l 0.7,0.6 q 1.25,1.1 2.5,1.05 0,-3.3 -1.3,-6.2 l 0.5,0.5 0.95,0.55 -0.25,-6.2 q 1,3.15 0.9,5.25 M 2.55,-2 Q 2.35,-4.35 1,-5.8 2.35,-4.35 2.55,-2 M 2.3,1 Q 1.9,3.85 1.35,5 2.25,1.9 -0.7,-1.15 2.25,1.9 1.35,5 1.9,3.85 2.3,1 M 1.35,5 -0.1,8.75 1.35,5"
         fill="#77adaa"
         fill-rule="evenodd"
         stroke="none"
         id="path17645" />
      <path
         d="M -0.15,8.9 -0.1,8.75 -0.05,8.8 -0.15,8.9"
         fill="#ab5520"
         fill-rule="evenodd"
         stroke="none"
         id="path17647" />
      <path
         d="m -3.6,-6.2 0.05,-0.05 q 1.95,1.4 3,3.2 -0.95,-2.3 -2.8,-4.2 l 1.7,-5.2 q 1.5,-4.05 2.9,-3.7 l 1.2,3.3 0.1,-1.85 q 1.25,0 1.85,1.05 0.8,2.55 1.2,5.15 -1.2,2.1 -1.65,4.75 0.55,-1.7 1.85,-3.3 2.3,4.25 0.8,9.3 Q 5.1,7.2 -0.65,9.7 l -0.8,1.25 M 3.75,-9.8 Q 2.9,-8.3 2.6,-6.2 L 2.5,-5.3 2.55,-2 2.3,1 Q 2.9,-1 4.1,-2.5 L 4.7,-3.1 M 3.75,-9.8 4.5,-10.95 M 2.6,-6.2 Q 2.7,-8.3 1.7,-11.45 M 1,-5.8 Q 2.35,-4.35 2.55,-2 M 1,-5.8 0.5,-6.3 m -1.2,5.15 Q 2.25,1.9 1.35,5 1.9,3.85 2.3,1 m -3,-2.15 -0.7,-0.6 M -3.6,-6 q -0.25,3.2 1.3,7.85 l 1.35,2.55 q 1.6,2.4 0.85,4.35 L 1.35,5 m -2,4.7 0.2,-0.4 0.1,-0.2 0.2,-0.2 0.05,-0.15"
         fill="none"
         stroke="#000000"
         stroke-linecap="round"
         stroke-linejoin="miter"
         stroke-miterlimit="5"
         stroke-opacity="0.298039"
         stroke-width="0.3"
         id="path17649" />
    </g>
  </g>
</svg>
